<svg xmlns="http://www.w3.org/2000/svg" viewBox="0 0 876 876"><defs><linearGradient id="d" x1=".1" x2=".9" y1=".1" y2=".3"><stop offset="0%" stop-color="#dfd9cb"/><stop offset="50%" stop-color="#faf6ec"/><stop offset="100%" stop-color="#fdfbf5"/></linearGradient><linearGradient id="c" x1=".2" x2=".8" y1=".15" y2=".85"><stop offset="0%" stop-color="#d0d0d0"/><stop offset="15%" stop-color="#eaeaea"/><stop offset="30%" stop-color="#d4af37"/><stop offset="45%" stop-color="#7a5b18"/><stop offset="60%" stop-color="#e8c374"/><stop offset="80%" stop-color="#8c6a21"/><stop offset="100%" stop-color="#fff1d0"/></linearGradient><linearGradient id="e" x1=".1" x2=".9" y1=".1" y2=".9"><stop offset="0%" stop-color="#544527"/><stop offset="50%" stop-color="#c49b50"/><stop offset="100%" stop-color="#ffe9b8"/></linearGradient><linearGradient id="g" x1=".1" x2=".9" y1=".8" y2=".2"><stop offset="0%" stop-color="#b07a21"/><stop offset="35%" stop-color="#d49e35"/><stop offset="70%" stop-color="#f5cc6c"/><stop offset="100%" stop-color="#ffe694"/></linearGradient><linearGradient id="h" x1=".2" x2=".8" y1=".2" y2=".8"><stop offset="0%" stop-color="#fff" stop-opacity=".75"/><stop offset="50%" stop-color="#e3b65d" stop-opacity=".4"/><stop offset="100%" stop-color="#7a4e10" stop-opacity=".85"/></linearGradient><clipPath id="b"><path d="M0 0h876v632H510v15h366v229H0Z"/></clipPath></defs><g><g clip-path="url(#b)"><path fill="none" stroke="url(#c)" stroke-linecap="square" stroke-linejoin="round" stroke-width="8" d="M625.43 632A209.5 225.7 0 0 0 299.2 351.45V156a20 14 0 0 0-20-14h-17.7a20 14 0 0 0-20 14v351a209.5 225.7 0 0 0 373.83 140"/><path fill="url(#d)" fill-rule="evenodd" d="M241.5 156a20 14 0 0 1 20-14h17.7a20 14 0 0 1 20 14v195.45A209.5 225.7 0 0 1 625.43 632h-88.7a141.15 157.35 0 1 0-21.3 15h99.9A209.5 225.7 0 0 1 241.5 507z"/><path fill="none" stroke="url(#e)" stroke-linecap="square" stroke-width="4" d="M536.73 632a141.15 157.35 0 1 0-21.3 15" opacity=".7"/></g></g><g><path fill="url(#g)" stroke="url(#h)" stroke-width="2" d="M389 555.74V422.92a15 15 0 0 1 22.7-12.87l112.61 67.38a15 15 0 0 1-.16 25.84L411.54 568.7A15 15 0 0 1 389 555.74Z"/></g></svg>
